<?xml version="1.0" encoding="utf-8"?>
<!-- Generator: Adobe Illustrator 18.1.1, SVG Export Plug-In . SVG Version: 6.00 Build 0)  -->
<svg version="1.1" id="Layer_1" xmlns="http://www.w3.org/2000/svg" xmlns:xlink="http://www.w3.org/1999/xlink" x="0px" y="0px"
     viewBox="215.2 128.8 163.8 163.8" enable-background="new 215.2 128.8 163.8 163.8" xml:space="preserve">
<g>
	<path fill="#AA3A50" d="M316.8,206.8c6.9-2.9,11.1-8.5,11.1-16.2c0-14.2-10-20.8-27.2-20.8H291V185h7c6.7,0,10.3,2.2,10.3,7.6
		c0,5.2-3.9,7.5-10.6,7.5H291v15.4h11.2c7.5,0,11.6,2.6,11.6,8.3c0,5.2-3.4,7.9-10.7,7.9h-17.5v-61.9h-0.1l-19,15.2v62h39.4
		c18.2,0,28.2-7.9,28.2-20.9C334.1,215.2,327.6,209.1,316.8,206.8L316.8,206.8z"/>
    <path fill="#AA3A50" d="M297.1,128.8c-45.3,0-81.9,36.7-81.9,81.9c0,45.3,36.7,81.9,81.9,81.9c45.3,0,81.9-36.7,81.9-81.9
		S342.3,128.8,297.1,128.8L297.1,128.8z M350.7,247.4v16.8H334c-10.5,7.3-23.2,11.6-37,11.6c-35.9,0-64.9-29.1-64.9-64.9
		c0-35.9,29.1-64.9,64.9-64.9c35.9,0,64.9,29.1,64.9,64.9C362,224.3,357.8,236.9,350.7,247.4L350.7,247.4z"/>
</g>
</svg>
