<?xml version="1.0" encoding="utf-8"?>
<!-- Generator: Adobe Illustrator 25.4.1, SVG Export Plug-In . SVG Version: 6.00 Build 0)  -->
<svg version="1.1" id="Ebene_1" xmlns="http://www.w3.org/2000/svg" xmlns:xlink="http://www.w3.org/1999/xlink" x="0px" y="0px"
	 viewBox="0 0 256 256" style="enable-background:new 0 0 256 256;" xml:space="preserve">
<style type="text/css">
	.st0{fill:#FFFFFF;}
	.st1{fill:#CC7133;}
	.st2{opacity:0.2;fill:#FFFFFF;enable-background:new    ;}
	.st3{fill:#3E51CB;}
</style>
<path class="st0" d="M-183.9,627.9c0.9,0.4,1.8,0.8,2.7,1.1C-182.1,628.7-183,628.3-183.9,627.9z"/>
<path class="st0" d="M-177.1,630.4c0.9,0.3,1.9,0.5,2.8,0.7C-175.3,630.9-176.2,630.7-177.1,630.4z"/>
<g>
	<rect x="-0.1" class="st1" width="256" height="256"/>
	<polygon class="st2" points="46,178 148.2,68.7 46,68.7 	"/>
	<g>
		<path id="Pfad_364-2_00000154398935172779974400000017725592059709721508_" class="st3" d="M137.2,112.2c0.3,0.1,0.6,0.3,0.9,0.5
			C137.8,112.5,137.5,112.3,137.2,112.2z M136.7,112c-0.3-0.1-0.6-0.3-0.9-0.4C136.1,111.7,136.4,111.8,136.7,112z M126.5,142.2
			c-0.3-0.1-0.6-0.2-1-0.2C125.8,142.1,126.1,142.2,126.5,142.2z M124.1,141.5c-0.3-0.1-0.6-0.3-0.9-0.4
			C123.5,141.3,123.8,141.4,124.1,141.5z"/>
		<path class="st0" d="M135.8,111.6c0.3,0.1,0.6,0.3,0.9,0.4C136.4,111.8,136.1,111.7,135.8,111.6z"/>
		<path class="st0" d="M137.2,112.2c0.3,0.1,0.6,0.3,0.9,0.5C137.8,112.5,137.5,112.3,137.2,112.2z"/>
		<path class="st0" d="M154.3,152.5l-10.8-17.3c3.2-5.1,3.5-11.7,0.1-17.2c-0.1-0.2-0.2-0.3-0.3-0.5c-0.2-0.3-0.4-0.6-0.6-0.9
			c-0.1-0.2-0.3-0.4-0.4-0.5c-0.1-0.1-0.2-0.2-0.2-0.3c-0.1-0.1-0.2-0.2-0.3-0.3c-0.1-0.1-0.2-0.2-0.3-0.3c-0.1-0.1-0.1-0.1-0.2-0.2
			c-0.3-0.3-0.7-0.6-1.1-0.9c-0.1-0.1-0.2-0.2-0.3-0.3c-0.1-0.1-0.2-0.1-0.3-0.2c-0.1-0.1-0.2-0.1-0.3-0.2c-0.1-0.1-0.2-0.2-0.3-0.2
			c-0.3-0.2-0.6-0.4-0.9-0.5c-0.3-0.2-0.6-0.3-0.9-0.5c-0.1-0.1-0.3-0.1-0.5-0.2c-0.3-0.1-0.6-0.3-0.9-0.4c0,0,0,0,0,0
			c-0.1,0-0.2-0.1-0.4-0.1c-0.1,0-0.2-0.1-0.4-0.1c-0.1,0-0.2-0.1-0.4-0.1c-0.1,0-0.2-0.1-0.4-0.1c-0.2-0.1-0.4-0.1-0.5-0.1
			c-0.2,0-0.4-0.1-0.5-0.1c0,0,0,0,0,0c-0.2,0-0.4-0.1-0.5-0.1c-0.1,0-0.3,0-0.4-0.1c-0.1,0-0.2,0-0.3,0c-0.1,0-0.3,0-0.4,0
			c-0.1,0-0.3,0-0.4,0c-0.1,0-0.2,0-0.3,0c-0.2,0-0.3,0-0.5,0c-0.2,0-0.4,0-0.6,0c-0.6,0-1.2,0-1.8,0.1l7.7,12.3l-2.9,8.4l-8.8-1.1
			l-7.7-12.3c-3.2,5.1-3.5,11.7-0.1,17.2c0.1,0.2,0.2,0.3,0.3,0.5c0.2,0.3,0.4,0.6,0.6,0.9c0.2,0.3,0.4,0.5,0.7,0.8
			c0.1,0.1,0.2,0.2,0.3,0.3c0.5,0.5,1,1,1.6,1.5c0.1,0.1,0.2,0.2,0.3,0.3c0.1,0.1,0.2,0.1,0.3,0.2c0.1,0.1,0.2,0.1,0.3,0.2
			c0.1,0.1,0.2,0.2,0.3,0.2c0.2,0.1,0.3,0.2,0.5,0.3c0,0,0,0,0.1,0c0.2,0.1,0.3,0.2,0.5,0.3c0,0,0,0,0.1,0c0.1,0.1,0.2,0.1,0.4,0.2
			c0.2,0.1,0.5,0.2,0.7,0.4c0.3,0.1,0.6,0.3,0.9,0.4c0,0,0,0,0,0c0.1,0,0.2,0.1,0.4,0.1c0.2,0.1,0.5,0.2,0.7,0.2
			c0.1,0,0.2,0.1,0.4,0.1c0,0,0,0,0,0c0.3,0.1,0.6,0.2,1,0.2c0.1,0,0.3,0.1,0.4,0.1s0.3,0.1,0.4,0.1c0.1,0,0.2,0,0.3,0
			c0.1,0,0.2,0,0.3,0c0.1,0,0.3,0,0.4,0c0.1,0,0.2,0,0.3,0c0.1,0,0.3,0,0.4,0c0,0,0.1,0,0.1,0c0.1,0,0.2,0,0.3,0c0.1,0,0.3,0,0.4,0
			c0.6,0,1.2,0,1.8-0.1l7.5,12.1l8.4,13.5c2,3.2,6.3,4.2,9.5,2.2v0c3.2-2,4.2-6.3,2.2-9.5L154.3,152.5z"/>
		<path class="st0" d="M123.2,141.1c0.3,0.1,0.6,0.3,0.9,0.4C123.8,141.4,123.5,141.3,123.2,141.1z M125.5,142
			c0.3,0.1,0.6,0.2,1,0.2C126.1,142.2,125.8,142.1,125.5,142z M135.8,111.6c0.3,0.1,0.6,0.3,0.9,0.4
			C136.4,111.8,136.1,111.7,135.8,111.6z M137.2,112.2c0.3,0.1,0.6,0.3,0.9,0.5C137.8,112.5,137.5,112.3,137.2,112.2z M137.2,112.2
			c0.3,0.1,0.6,0.3,0.9,0.5C137.8,112.5,137.5,112.3,137.2,112.2z M135.8,111.6c0.3,0.1,0.6,0.3,0.9,0.4
			C136.4,111.8,136.1,111.7,135.8,111.6z M125.5,142c0.3,0.1,0.6,0.2,1,0.2C126.1,142.2,125.8,142.1,125.5,142z M123.2,141.1
			c0.3,0.1,0.6,0.3,0.9,0.4C123.8,141.4,123.5,141.3,123.2,141.1z"/>
		<path class="st0" d="M167.3,135.7l-8.6-7.2c0.3-2.7,0.3-5.4,0-8.1l8.8-6.6c0.8-0.6,1.1-1.7,0.5-2.6L160,96.6
			c-0.5-0.9-1.5-1.3-2.5-0.9l-10.3,3.9c-2.1-1.7-4.5-3.1-7-4.2l-1.4-11c0-1-0.9-1.8-1.9-1.8l-16.6-0.3c-1.4,0-2.1,0.5-2.2,1.6
			l-1.6,11.1c-1.3,0.5-2.5,1.2-3.7,1.8c-1.2,0.7-2.4,1.4-3.5,2.2l-10.2-4.6c-1-0.5-1.9,0-2.6,1l-8.6,14.3c-0.5,0.9-0.3,2,0.5,2.6
			l8.6,7c-0.3,2.7-0.3,5.4,0,8.1l-8.8,6.6c-0.8,0.6-1.1,1.7-0.6,2.6l8.1,14.6c0.5,0.9,1.5,1.3,2.5,0.9l10.3-3.9
			c2.1,1.7,4.5,3.1,7,4.2l1.4,11c0,1,0.9,1.8,1.9,1.8l16.6,0.3c1.3,0,2.1-0.5,2.2-1.6l0.6-4l-8.6-13.8c-6.8,0-13-3.5-16.5-9.2
			c-2-3.2-3-6.9-3-10.6c0-3.6,1.1-7.2,3.1-10.3c0.6-1,1.7-1.6,2.9-1.6h0c1.2,0,2.3,0.6,2.9,1.6l6.8,10.9l4.4,0.5l1.4-4.2l-6.8-10.9
			c-0.6-1-0.7-2.3-0.2-3.4c0.5-1.1,1.6-1.8,2.7-1.9c0.7-0.1,1.5-0.1,2.2-0.1c6.8,0,13,3.4,16.6,9.2c2,3.2,3,6.9,3,10.6
			c0,2.9-0.7,5.7-2,8.3l11.3,18.1c0.2-0.2,0.3-0.4,0.5-0.6l8.5-14.3C168.4,137.5,168.2,136.3,167.3,135.7z"/>
	</g>
	<path class="st0" d="M228.1,178V68.7c0-10-8.1-18.2-18.1-18.3c0,0,0,0,0,0H46c-10,0-18.2,8.1-18.2,18.2c0,0,0,0.1,0,0.1V178
		c0,10,8.1,18.2,18.1,18.3c0,0,0.1,0,0.1,0h45.5v18.3h72.9v-18.3h45.5C220,196.2,228.1,188.1,228.1,178
		C228.1,178,228.1,178,228.1,178z M46,68.7h164v6.5l0,0v10.9v37.2V178H46V68.7z"/>
</g>
</svg>
